<svg xmlns="http://www.w3.org/2000/svg" viewBox="0 0 180 180" width="180" height="180" role="img" aria-label="JobWize">
  <defs>
    <linearGradient id="bga" x1="0" y1="0" x2="1" y2="1">
      <stop offset="0" stop-color="#8b6dff"/>
      <stop offset="1" stop-color="#6c4bf0"/>
    </linearGradient>
  </defs>
  <!-- iOS applies its own rounding/mask, so use a full-bleed background -->
  <rect x="0" y="0" width="180" height="180" fill="url(#bga)"/>
  <g transform="scale(0.3515625)">
    <path fill="#ffffff" d="M256 96c10 78 38 106 116 116-78 10-106 38-116 116-10-78-38-106-116-116 78-10 106-38 116-116z"/>
    <path fill="#ffffff" opacity="0.92" d="M372 300c5 33 16 44 49 49-33 5-44 16-49 49-5-33-16-44-49-49 33-5 44-16 49-49z"/>
  </g>
</svg>
