<svg xmlns="http://www.w3.org/2000/svg" viewBox="0 0 512 512" width="512" height="512" role="img" aria-label="JobWize">
  <defs>
    <linearGradient id="bgm" x1="0" y1="0" x2="1" y2="1">
      <stop offset="0" stop-color="#8b6dff"/>
      <stop offset="1" stop-color="#6c4bf0"/>
    </linearGradient>
  </defs>
  <!-- Full-bleed violet background so Android can mask to any shape -->
  <rect x="0" y="0" width="512" height="512" fill="url(#bgm)"/>
  <!-- Mark scaled to ~58% and centered inside the inner 80% safe zone -->
  <g transform="translate(256 256) scale(0.62) translate(-256 -256)">
    <path fill="#ffffff" d="M256 96c10 78 38 106 116 116-78 10-106 38-116 116-10-78-38-106-116-116 78-10 106-38 116-116z"/>
    <path fill="#ffffff" opacity="0.92" d="M372 300c5 33 16 44 49 49-33 5-44 16-49 49-5-33-16-44-49-49 33-5 44-16 49-49z"/>
  </g>
</svg>
